<svg width="24" height="24" viewBox="0 0 24 24" fill="none" xmlns="http://www.w3.org/2000/svg">
    <mask id="path-1-outside-1_55_356" maskUnits="userSpaceOnUse" x="1" y="1" width="22" height="22" fill="black">
        <rect fill="white" x="1" y="1" width="22" height="22"/>
        <path d="M17,10.039c-3.859,0-7,3.14-7,7,0,3.838,3.141,6.961,7,6.961s7-3.14,7-7c0-3.838-3.141-6.961-7-6.961Zm0,11.961c-2.757,0-5-2.226-5-4.961,0-2.757,2.243-5,5-5s5,2.226,5,4.961c0,2.757-2.243,5-5,5Zm1.707-4.707c.391,.391,.391,1.023,0,1.414-.195,.195-.451,.293-.707,.293s-.512-.098-.707-.293l-1-1c-.188-.188-.293-.442-.293-.707v-2c0-.552,.447-1,1-1s1,.448,1,1v1.586l.707,.707Zm5.293-10.293v2c0,.552-.447,1-1,1s-1-.448-1-1v-2c0-1.654-1.346-3-3-3H5c-1.654,0-3,1.346-3,3v1H11c.552,0,1,.448,1,1s-.448,1-1,1H2v9c0,1.654,1.346,3,3,3h4c.552,0,1,.448,1,1s-.448,1-1,1H5c-2.757,0-5-2.243-5-5V7C0,4.243,2.243,2,5,2h1V1c0-.552,.448-1,1-1s1,.448,1,1v1h8V1c0-.552,.447-1,1-1s1,.448,1,1v1h1c2.757,0,5,2.243,5,5Z"/>
    </mask>
    <path d="M17,10.039c-3.859,0-7,3.14-7,7,0,3.838,3.141,6.961,7,6.961s7-3.14,7-7c0-3.838-3.141-6.961-7-6.961Zm0,11.961c-2.757,0-5-2.226-5-4.961,0-2.757,2.243-5,5-5s5,2.226,5,4.961c0,2.757-2.243,5-5,5Zm1.707-4.707c.391,.391,.391,1.023,0,1.414-.195,.195-.451,.293-.707,.293s-.512-.098-.707-.293l-1-1c-.188-.188-.293-.442-.293-.707v-2c0-.552,.447-1,1-1s1,.448,1,1v1.586l.707,.707Zm5.293-10.293v2c0,.552-.447,1-1,1s-1-.448-1-1v-2c0-1.654-1.346-3-3-3H5c-1.654,0-3,1.346-3,3v1H11c.552,0,1,.448,1,1s-.448,1-1,1H2v9c0,1.654,1.346,3,3,3h4c.552,0,1,.448,1,1s-.448,1-1,1H5c-2.757,0-5-2.243-5-5V7C0,4.243,2.243,2,5,2h1V1c0-.552,.448-1,1-1s1,.448,1,1v1h8V1c0-.552,.447-1,1-1s1,.448,1,1v1h1c2.757,0,5,2.243,5,5Z" fill="#101317"/>
    <path d="M17,10.039c-3.859,0-7,3.14-7,7,0,3.838,3.141,6.961,7,6.961s7-3.14,7-7c0-3.838-3.141-6.961-7-6.961Zm0,11.961c-2.757,0-5-2.226-5-4.961,0-2.757,2.243-5,5-5s5,2.226,5,4.961c0,2.757-2.243,5-5,5Zm1.707-4.707c.391,.391,.391,1.023,0,1.414-.195,.195-.451,.293-.707,.293s-.512-.098-.707-.293l-1-1c-.188-.188-.293-.442-.293-.707v-2c0-.552,.447-1,1-1s1,.448,1,1v1.586l.707,.707Zm5.293-10.293v2c0,.552-.447,1-1,1s-1-.448-1-1v-2c0-1.654-1.346-3-3-3H5c-1.654,0-3,1.346-3,3v1H11c.552,0,1,.448,1,1s-.448,1-1,1H2v9c0,1.654,1.346,3,3,3h4c.552,0,1,.448,1,1s-.448,1-1,1H5c-2.757,0-5-2.243-5-5V7C0,4.243,2.243,2,5,2h1V1c0-.552,.448-1,1-1s1,.448,1,1v1h8V1c0-.552,.447-1,1-1s1,.448,1,1v1h1c2.757,0,5,2.243,5,5Z" stroke="#101317" stroke-width="0.4" mask="url(#path-1-outside-1_55_356)"/>
</svg>
