<svg width="19" height="20" viewBox="0 0 19 20" fill="none" xmlns="http://www.w3.org/2000/svg">
<path fill-rule="evenodd" clip-rule="evenodd" d="M18.9998 10.2089C18.9998 9.55718 18.9413 8.93048 18.8327 8.32886H10.1759V11.8843H15.1226C14.9095 13.0332 14.262 14.0067 13.2885 14.6585V16.9647H16.259C17.9971 15.3646 18.9998 13.0082 18.9998 10.2089Z" fill="#4285F4"/>
<path fill-rule="evenodd" clip-rule="evenodd" d="M10.1759 19.1917C12.6576 19.1917 14.7383 18.3687 16.259 16.9649L13.2885 14.6586C12.4654 15.2101 11.4126 15.536 10.1759 15.536C7.78195 15.536 5.75563 13.9191 5.03284 11.7466H1.96204V14.128C3.47446 17.132 6.58287 19.1917 10.1759 19.1917Z" fill="#34A853"/>
<path fill-rule="evenodd" clip-rule="evenodd" d="M5.03283 11.7465C4.849 11.195 4.74455 10.606 4.74455 10.0001C4.74455 9.39434 4.849 8.80525 5.03283 8.25376V5.87231H1.96202C1.3395 7.11317 0.984375 8.51697 0.984375 10.0001C0.984375 11.4833 1.3395 12.8871 1.96202 14.128L5.03283 11.7465Z" fill="#FBBC05"/>
<path fill-rule="evenodd" clip-rule="evenodd" d="M10.1759 4.46432C11.5254 4.46432 12.737 4.92807 13.6896 5.83887L16.3259 3.20257C14.7341 1.71939 12.6535 0.808594 10.1759 0.808594C6.58287 0.808594 3.47446 2.86833 1.96204 5.87229L5.03284 8.25373C5.75563 6.08119 7.78195 4.46432 10.1759 4.46432Z" fill="#EA4335"/>
</svg>
